<svg xmlns="http://www.w3.org/2000/svg" width="385.064" height="446.137" viewBox="0 0 101.881 118.041"  xmlns:v="https://vecta.io/nano"><path d="M1.298.001c-.027.002-.05.008-.065.017-2 1.19-1.403 116.836.6 118.005.72.418 13.718-6.777 30.104-16.288-.334-.7-.65-1.415-.94-2.146-7.102-17.844 1.402-38.372 19.002-45.637a33.81 33.81 0 0 1 12.578-2.568c2.407-.024 4.77.3 7.096.776l1.062-2.424c.328-.716.604-1.302.854-1.79a9.41 9.41 0 0 1 .402-.727c.085-.137.17-.28.393-.55.11-.135.246-.304.553-.56s.756-.744 2.088-.912h.002c1.79-.225 2.234.34 2.568.537s.48.325.604.43c.25.2.37.34.496.472a17.3 17.3 0 0 1 .744.848c.534.638 1.2 1.477 1.982 2.482l5.553 7.34 5.414 7.447.23.33c5.724-3.685 9.257-6.152 9.254-6.6C101.87 56.14 4.77-.28 1.298.001zM76.45 56.644l-.754 1.722a4 4 0 0 1-4.889 2.242c-2.62-.83-5.367-1.252-8.14-1.225a25.76 25.76 0 0 0-9.606 1.963c-13.52 5.58-20.133 21.435-14.62 35.285a27.8 27.8 0 0 0 .445 1.051l1.45-.85c-.136-.307-.27-.616-.394-.93-5.13-12.9.954-27.593 13.688-32.85 5.156-2.13 10.643-2.4 15.645-1.068a4 4 0 0 1 2.686 5.369l-.826 2.1 6.756-.785 6.79-.923-4.12-5.672-4.107-5.428zM62.612 69.26c-1.97.05-3.962.375-5.93 1.187-8.66 3.575-12.81 13.37-9.387 22.284l25.69-15.417-3.134.342-3.137.28c-.412.027-.753.047-1.123.047-.185 0-.362.003-.69-.033-.164-.018-.357-.037-.733-.145s-1.088-.06-2.14-1.478c-.795-1.072-.753-1.712-.783-2.102s-.004-.6.014-.772c.036-.34.078-.503.115-.66.075-.313.147-.54.234-.807.173-.532.4-1.16.686-1.916.08-.215.23-.577.318-.8z" fill="#4fc3f7" fill-rule="evenodd"/><path d="M75.536 49.165c-.195.024-1.71 3.39-3.518 7.632a30.07 30.07 0 0 0-9.39-1.413c-3.705.037-7.46.767-11.092 2.265-15.56 6.423-23.118 24.614-16.81 40.46s24.168 23.545 39.728 17.122c9.294-3.837 15.732-11.87 18.067-21.097H82.47c-2.003 5.26-6.06 9.695-11.64 11.998-10.732 4.43-22.822-.78-27.172-11.7s.766-23.244 11.498-27.674a20.46 20.46 0 0 1 13.097-.897c-1.77 4.37-3.132 7.93-3.012 8.09.318.43 26-2.813 26.216-3.31S76.06 49.1 75.536 49.165z" fill="#ffc107"/></svg>